<svg width="250" height="256" fill="none" xmlns="http://www.w3.org/2000/svg"><path fill-rule="evenodd" clip-rule="evenodd" d="M78.466 19.554C124.835 4.33 211.147-24.007 242.683 40.049c7.875 16.014 9.454 35.995 4.443 56.288-3.965 16.087-11.822 32.414-24.69 51.384-12.501 18.439-27.902 36.987-48.461 58.382-16.044 16.694-30.215 29.696-47.231 38.823C113.086 252.254 99.025 256 85.735 256c-6.461 0-12.72-.882-18.668-2.663-17.99-5.381-34.455-19.889-45.194-39.815-9.84-18.273-14.355-38.915-17.75-58.491-5.324-30.633-8.353-65.618 9.434-92.908 15.805-24.26 44.625-35.921 64.909-42.57Zm162.565 21.303C210.192-21.748 124.871 6.239 79.035 21.299 59.008 27.873 30.592 39.35 15.099 63.133-2.358 89.891.671 124.435 5.94 154.718c3.378 19.43 7.839 39.889 17.55 57.923 10.518 19.503 26.58 33.699 44.11 38.933 17.494 5.234 38.732 2.222 58.263-8.264 16.815-9.017 30.876-21.909 46.791-38.493 20.486-21.303 35.814-39.778 48.278-58.124 12.739-18.787 20.504-34.93 24.414-50.797 4.919-19.87 3.378-39.41-4.314-55.039Zm-154.323 6.28c37.759-13.846 91.415-27.95 121.245 9.348 6.7 8.356 10.059 17.594 10.059 27.547 0 4.83-.789 9.844-2.368 15.005-4.626 15.15-13.969 29.401-22.505 41.339-10.225 14.269-21.863 28.245-35.593 42.716-10.078 10.633-21.22 21.468-34.4 28.759-10.353 5.748-21.441 8.742-31.812 8.742-4.259 0-8.407-.496-12.317-1.525-13.713-3.581-26.25-13.847-34.382-28.171-7.691-13.645-10.94-29.402-13.107-43.047-.257-1.524-.477-3.067-.697-4.61-2.478-17.722-4.277-43.616 8.774-63.689C48.508 65.87 63.47 55.568 86.708 47.139Zm66.524-12.708c-22.468 0-46.332 7.254-65.882 14.435-22.853 8.283-37.538 18.346-46.203 31.68-12.72 19.576-10.94 45.011-8.499 62.439.22 1.543.44 3.067.68 4.592 2.147 13.461 5.36 29.034 12.904 42.404 7.893 13.92 20.009 23.874 33.244 27.308 12.996 3.398 28.599.845 42.77-7.034 12.96-7.18 23.992-17.905 33.978-28.428 13.676-14.398 25.259-28.319 35.428-42.533 8.444-11.808 17.696-25.894 22.248-40.788 4.644-15.206 2.166-28.961-7.379-40.88-6.902-8.631-15.144-14.435-24.212-18.07-9.05-3.637-18.926-5.125-29.077-5.125Zm-58.3 40.311c23.973-10.67 66.524-17.685 80.787-2.553 9.655 9.495 13.602 16.675 8.444 29.586-4.406 11.019-13.107 22.056-20.082 30.926l-.257.331c-6.902 8.76-14.428 18.107-22.707 27.069-6.278 6.777-13.235 13.755-21.569 18.677-7.159 4.279-15.089 6.556-22.524 6.556a34.51 34.51 0 0 1-6.039-.532c-9.508-1.745-18.1-7.75-23.57-16.528-5.525-8.852-7.452-19.394-8.499-27.603-.128-.973-.238-1.965-.348-2.975-1.8-17.244.532-30.577 7.103-40.733 7.49-11.606 20.284-18.236 29.26-22.221Zm51.985-9.366c-16.906 0-37.116 4.756-51.233 11.037-13.932 6.19-22.964 13.04-28.47 21.542-6.334 9.807-8.573 22.736-6.81 39.558.091.973.22 1.965.33 2.938 1.028 8.007 2.9 18.31 8.242 26.849 5.195 8.338 13.345 14.049 22.34 15.702 8.572 1.561 18.521-.551 27.296-5.803 8.132-4.812 14.979-11.662 21.165-18.347 8.223-8.906 15.731-18.217 22.597-26.959l.257-.331c6.92-8.778 15.511-19.705 19.825-30.467 4.332-10.835 2.459-17.28-8.041-27.602l-.018-.018c-5.415-5.767-15.64-8.1-27.48-8.1Zm-8.976 23.966c9.564-.79 15.071.698 16.815 4.518 2.957 6.423-6.009 17.385-16.403 27.979l-.703.714-.353.356-.708.711a355.75 355.75 0 0 1-2.136 2.121c-2.551 2.516-4.883 5.381-7.122 8.154-3.396 4.169-6.902 8.466-11.308 11.772-4.038 3.03-9.325 4.903-14.336 4.903-4.387 0-8.554-1.432-11.436-4.83-2.717-3.177-4.039-7.768-3.947-13.663.147-7.346 2.552-13.498 5.93-18.512 3.359-5.014 7.672-8.889 11.601-11.735 9.417-6.832 22.174-11.496 34.106-12.488Zm15.144 5.289c-1.34-2.957-6.516-4.15-14.997-3.453-33.978 2.81-49.654 25.638-49.948 40.935-.092 5.418 1.083 9.605 3.506 12.433 5.507 6.446 16.374 4.83 23.276-.349 4.222-3.158 7.655-7.382 10.977-11.459 2.276-2.81 4.644-5.712 7.269-8.301 2.407-2.366 6.327-6.225 10.086-10.485l.591-.676c.197-.226.393-.453.588-.681l.582-.687c5.402-6.425 9.879-13.348 8.07-17.277Z" fill="#575445" fill-opacity=".14"/></svg>