<svg width="160" height="48" fill="none" xmlns="http://www.w3.org/2000/svg"><path fill-rule="evenodd" clip-rule="evenodd" d="M24.12 0c13.3 0 24.122 10.767 24.122 24S37.42 48 24.12 48C10.82 48 0 37.233 0 24S10.821 0 24.12 0Zm0 2.717C12.327 2.717 2.732 12.264 2.732 24s9.595 21.283 21.39 21.283S45.51 35.736 45.51 24 35.916 2.717 24.12 2.717Zm1.366 4.62c0 4.186 3.423 7.59 7.63 7.59v2.718c-3.02 0-5.734-1.3-7.63-3.36v1.513c0 4.185 3.423 7.59 7.63 7.59v2.717c-3.02 0-5.734-1.3-7.63-3.359v1.512c0 4.186 3.423 7.59 7.63 7.59v2.717c-3.02 0-5.734-1.3-7.63-3.358v9.455h-2.73V31.21a10.346 10.346 0 0 1-7.63 3.356v-2.717c4.208 0 7.63-3.404 7.63-7.59v-1.51a10.346 10.346 0 0 1-7.63 3.357v-2.717c4.208 0 7.63-3.405 7.63-7.59v-1.512a10.34 10.34 0 0 1-7.63 3.359v-2.718c4.208 0 7.63-3.404 7.63-7.59h2.73ZM154.36 28.345l3.147 5.768v-5.768h2.493v10.466h-2.571l-3.069-5.752v5.752h-2.494V28.345h2.494Zm-52.711.002c.732 0 1.232.496 1.232 1.224v8.016c0 .728-.5 1.224-1.232 1.224h-5.407c-.732 0-1.23-.496-1.23-1.224V29.57c0-.728.498-1.224 1.23-1.224h5.407Zm21.201-.002c.733 0 1.231.498 1.231 1.226v9.24h-2.71v-2.605h-2.383v2.605h-2.712v-9.24c0-.728.498-1.226 1.23-1.226h5.344Zm24.881.002c.732 0 1.232.496 1.232 1.224v8.016c0 .728-.5 1.224-1.232 1.224h-5.407c-.732 0-1.23-.496-1.23-1.224V29.57c0-.728.498-1.224 1.23-1.224h5.407Zm-9.539 0V38.81h-2.695V28.346h2.695Zm-69.061-.001 1.59 2.992 1.323-2.992h2.916l-2.898 5.41 2.865 5.054h-2.991l-1.558-2.883-1.496 2.883H66.03l3.054-5.224-2.976-5.24h3.022Zm43.26 0a1.18 1.18 0 0 1 1.183 1.178v4.792a1.2 1.2 0 0 1-1.183 1.177h-.078l1.293 3.317h-2.649l-1.309-3.317h-1.152v3.317h-2.712V28.345h6.607Zm-47.799 0v2.248h-4.176v1.83h3.615v2.23h-3.615v1.893h4.176v2.263H57.72V28.346h6.871Zm18.74 0c.637 0 1.183.512 1.183 1.178v5.38c0 .62-.546 1.177-1.183 1.177h-3.724v2.729h-2.712V28.345h6.436Zm6.423 0v8.201h3.351v2.263H87.06V28.346h2.695Zm43.728 0v2.263h-2.383v8.201h-2.712V30.61h-2.385v-2.263h7.48ZM99.997 30.61h-2.134c-.063 0-.14.078-.14.17v5.628c0 .078.077.14.14.14h2.134c.093 0 .171-.062.171-.14V30.78a.172.172 0 0 0-.171-.17Zm46.082 0h-2.134c-.062 0-.14.078-.14.17v5.628c0 .078.078.14.14.14h2.134c.093 0 .171-.062.171-.14V30.78a.172.172 0 0 0-.171-.17Zm-25.084-.125h-1.683a.315.315 0 0 0-.325.31v3.147h2.383v-3.147c0-.185-.156-.31-.375-.31Zm-39.332.108h-2.056v3.272h2.056c.078 0 .14-.077.14-.14V30.75c0-.078-.062-.155-.14-.155Zm29.074 0h-2.242v2.792h2.242c.063 0 .141-.078.141-.14v-2.496c0-.078-.078-.155-.141-.155ZM98.68 9.19v3.313h-3.49V24.51h-3.97V12.502h-3.49V9.19h10.95Zm59.54 0c.936 0 1.734.75 1.734 1.726v7.012c0 .93-.798 1.724-1.734 1.724h-.112L160 24.51h-3.878l-1.915-4.858h-1.689v4.858h-3.969V9.189h9.671Zm-80.762 0v11.802c0 .114.114.205.205.205h2.897c.136 0 .25-.091.25-.205V9.19h3.97v13.572c0 .999-.776 1.748-1.735 1.748h-7.801c-.934 0-1.755-.75-1.755-1.748V9.189h3.969Zm-10.022 0c1.072 0 1.803.726 1.803 1.793v11.734c0 1.067-.73 1.792-1.803 1.792h-7.914c-1.072 0-1.803-.725-1.803-1.792V10.982c0-1.067.73-1.792 1.803-1.792h7.914Zm42.472 0c1.687 0 3.125 1.385 3.125 3.108v9.08a3.141 3.141 0 0 1-3.125 3.132h-8.28V9.189h8.28Zm16.955 0c1.073 0 1.803.726 1.803 1.793v11.734c0 1.067-.73 1.792-1.803 1.792h-7.914c-1.072 0-1.802-.725-1.802-1.792V10.982c0-1.067.73-1.792 1.802-1.792h7.914Zm15.633 0c1.073 0 1.803.726 1.803 1.793v11.734c0 1.067-.73 1.792-1.803 1.792h-7.913c-1.073 0-1.803-.725-1.803-1.792V10.982c0-1.067.73-1.792 1.803-1.792h7.913Zm-34.528 3.292h-2.371v8.714h2.371c.662 0 1.119-.454 1.119-1.113v-6.49c0-.659-.457-1.111-1.119-1.111Zm-42.95.022h-3.124c-.091 0-.206.114-.206.25v8.239c0 .113.114.203.206.203h3.124c.137 0 .251-.09.251-.203v-8.24a.253.253 0 0 0-.25-.249Zm59.428 0h-3.125c-.091 0-.205.114-.205.25v8.239c0 .113.114.203.205.203h3.125c.137 0 .251-.09.251-.203v-8.24a.253.253 0 0 0-.251-.249Zm15.633 0h-3.125c-.091 0-.205.114-.205.25v8.239c0 .113.114.203.205.203h3.125c.137 0 .251-.09.251-.203v-8.24a.253.253 0 0 0-.251-.249Zm15.724-.024h-3.285v4.086h3.285c.091 0 .205-.114.205-.204v-3.654c0-.114-.114-.228-.205-.228Z" fill="#fff"/></svg>