<svg width="20" height="18" fill="none" xmlns="http://www.w3.org/2000/svg"><path d="M0 9a9 9 0 0 1 9-9h2a9 9 0 1 1 0 18H9a9 9 0 0 1-9-9Z" fill="#fff"/><path d="M7.228 8.941c0-1.261.206-2.244.616-2.948.411-.711 1.13-1.067 2.156-1.067 1.02 0 1.735.356 2.145 1.067.411.704.616 1.687.616 2.948 0 1.283-.205 2.28-.616 2.992C11.735 12.644 11.02 13 10 13c-1.026 0-1.745-.356-2.156-1.067-.41-.711-.616-1.709-.616-2.992Zm4.543 0c0-.638-.044-1.177-.132-1.617-.08-.447-.253-.807-.517-1.078-.256-.271-.63-.407-1.122-.407-.498 0-.88.136-1.144.407-.256.271-.429.63-.517 1.078a9.15 9.15 0 0 0-.12 1.617c0 .66.04 1.214.12 1.661.088.447.26.807.517 1.078.264.271.646.407 1.144.407.492 0 .866-.136 1.122-.407.264-.271.437-.63.517-1.078.088-.447.132-1.001.132-1.661Z" fill="#575445"/></svg>