<svg width="24" height="24" fill="none" xmlns="http://www.w3.org/2000/svg"><path d="M22.322 0H1.75C.778 0 0 .774 0 1.742v20.516C0 23.188.778 24 1.75 24h20.495c.972 0 1.75-.774 1.75-1.742V1.703C24.072.774 23.295 0 22.322 0ZM7.117 20.4h-3.54V8.98h3.54V20.4ZM5.327 7.394a2.045 2.045 0 0 1-2.06-2.052 2.07 2.07 0 0 1 2.06-2.052A2.07 2.07 0 0 1 7.39 5.342c0 1.123-.856 2.052-2.061 2.052ZM20.535 20.4h-3.54v-5.535c0-1.317-.038-3.059-1.866-3.059-1.867 0-2.139 1.471-2.139 2.942V20.4H9.45V8.98h3.461v1.588h.04c.505-.93 1.632-1.858 3.383-1.858 3.616 0 4.277 2.322 4.277 5.496V20.4h-.078Z" fill="#fff"/></svg>