<svg width="128" height="39" fill="none" xmlns="http://www.w3.org/2000/svg"><path fill-rule="evenodd" clip-rule="evenodd" d="M19.297 0c10.64 0 19.296 8.748 19.296 19.5S29.936 39 19.297 39C8.657 39 0 30.252 0 19.5S8.657 0 19.297 0Zm0 2.208C9.86 2.208 2.185 9.964 2.185 19.5c0 9.535 7.676 17.292 17.112 17.292 9.436 0 17.111-7.757 17.111-17.292 0-9.536-7.675-17.292-17.111-17.292Zm1.092 3.753c0 3.401 2.739 6.167 6.104 6.167v2.208c-2.416 0-4.587-1.056-6.104-2.729v1.229c0 3.4 2.739 6.167 6.104 6.167v2.207c-2.416 0-4.587-1.056-6.104-2.729v1.229c0 3.4 2.739 6.167 6.104 6.167v2.207c-2.416 0-4.587-1.056-6.104-2.729v7.683h-2.185v-7.681c-1.515 1.671-3.686 2.727-6.103 2.727v-2.207c3.366 0 6.103-2.766 6.103-6.167v-1.227c-1.515 1.671-3.686 2.727-6.103 2.727v-2.207c3.366 0 6.103-2.767 6.103-6.167v-1.229c-1.515 1.673-3.686 2.73-6.103 2.73v-2.209c3.366 0 6.103-2.766 6.103-6.167h2.185Zm103.098 17.07 2.518 4.686V23.03H128v8.504h-2.057l-2.456-4.674v4.674h-1.995V23.03h1.995Zm-42.169 0c.586 0 .986.404.986.995v6.513c0 .592-.4.995-.986.995h-4.325c-.586 0-.985-.403-.985-.995v-6.513c0-.591.399-.994.985-.994h4.325Zm16.962 0c.585 0 .984.404.984.995v7.508h-2.168v-2.117h-1.907v2.117h-2.17v-7.508c0-.591.4-.996.985-.996h4.276Zm19.904 0c.586 0 .986.404.986.995v6.513c0 .592-.4.995-.986.995h-4.325c-.586 0-.985-.403-.985-.995v-6.513c0-.591.399-.994.985-.994h4.325Zm-7.631 0v8.503h-2.156V23.03h2.156Zm-55.25 0 1.273 2.43 1.059-2.43h2.332l-2.319 4.396 2.293 4.107h-2.393l-1.246-2.344-1.197 2.343h-2.281l2.443-4.245-2.38-4.257h2.417Zm34.609 0c.511 0 .946.416.946.958v3.892a.968.968 0 0 1-.946.957h-.063l1.035 2.695h-2.12l-1.046-2.695h-.922v2.695h-2.17v-8.502h5.286Zm-38.24 0v1.827h-3.34v1.486h2.892v1.813h-2.892v1.538h3.34v1.838h-5.496v-8.502h5.497Zm14.993 0c.51 0 .946.416.946.958v4.37c0 .505-.437.957-.947.957h-2.979v2.217h-2.17v-8.502h5.15Zm5.138 0v6.664h2.681v1.838h-4.837v-8.502h2.156Zm34.983 0v1.839h-1.907v6.663h-2.169V24.87h-1.908V23.03h5.984Zm-26.788 1.84H78.29c-.05 0-.112.063-.112.138v4.572c0 .064.062.114.112.114h1.707c.075 0 .137-.05.137-.114V25.01a.14.14 0 0 0-.136-.138Zm36.865 0h-1.707c-.05 0-.112.063-.112.138v4.572c0 .064.062.114.112.114h1.707c.075 0 .137-.05.137-.114V25.01a.139.139 0 0 0-.137-.138Zm-20.067-.102H95.45c-.15 0-.26.114-.26.252v2.557h1.906v-2.557c0-.15-.125-.252-.3-.252Zm-31.466.088h-1.645v2.659h1.645c.063 0 .113-.063.113-.114v-2.419c0-.063-.05-.126-.113-.126Zm23.26 0h-1.794v2.268h1.794c.05 0 .112-.063.112-.114v-2.028c0-.063-.062-.126-.112-.126Zm-9.646-17.39v2.691h-2.792v9.756h-3.176v-9.756h-2.791V7.466h8.759Zm47.632-.001c.748 0 1.387.609 1.387 1.402v5.698c0 .755-.639 1.4-1.387 1.4h-.09L128 19.914h-3.102l-1.532-3.946h-1.351v3.946h-3.176V7.466h7.737Zm-64.61 0v9.59c0 .092.091.165.164.165h2.318c.11 0 .2-.073.2-.166V7.466h3.176v11.027c0 .812-.621 1.42-1.388 1.42h-6.24a1.413 1.413 0 0 1-1.405-1.42V7.466h3.175Zm-8.017 0c.858 0 1.442.59 1.442 1.457v9.534c0 .867-.584 1.456-1.442 1.456h-6.331c-.858 0-1.443-.59-1.443-1.456V8.923c0-.867.585-1.456 1.443-1.456h6.33Zm33.978 0c1.35 0 2.5 1.125 2.5 2.526v7.377c0 1.42-1.15 2.544-2.5 2.544h-6.625V7.466h6.625Zm13.563 0c.858 0 1.443.59 1.443 1.457v9.534c0 .867-.585 1.456-1.443 1.456h-6.33c-.858 0-1.443-.59-1.443-1.456V8.923c0-.867.585-1.456 1.442-1.456h6.331Zm12.507 0c.858 0 1.442.59 1.442 1.457v9.534c0 .867-.584 1.456-1.442 1.456h-6.331c-.858 0-1.442-.59-1.442-1.456V8.923c0-.867.584-1.456 1.442-1.456h6.331Zm-27.622 2.675h-1.898v7.08h1.898c.53 0 .894-.369.894-.904v-5.274c0-.535-.365-.902-.894-.902Zm-34.36.018h-2.5c-.073 0-.164.092-.164.203v6.694c0 .092.091.165.164.165h2.5c.11 0 .2-.073.2-.165v-6.694a.204.204 0 0 0-.2-.203Zm47.541 0h-2.5c-.072 0-.163.092-.163.203v6.694c0 .092.09.165.164.165h2.5c.11 0 .2-.073.2-.165v-6.694a.204.204 0 0 0-.2-.203Zm12.507 0h-2.5c-.073 0-.164.092-.164.203v6.694c0 .092.091.165.164.165h2.5c.11 0 .201-.073.201-.165v-6.694a.204.204 0 0 0-.201-.203Zm12.579-.02h-2.627v3.32h2.627c.073 0 .164-.092.164-.166v-2.969c0-.092-.091-.184-.164-.184Z" fill="#575445"/></svg>