<svg width="64" height="64" fill="none" xmlns="http://www.w3.org/2000/svg"><path d="M0 32C0 14.327 14.327 0 32 0c17.673 0 32 14.327 32 32 0 17.673-14.327 32-32 32C14.327 64 0 49.673 0 32Z" fill="#575445"/><path d="M41.854 18c1.65 0 2.98 1.395 2.98 3.07v18.65c0 .094 0 .14-.047.233l-3.345 5.582c-.184.279-.459.465-.78.465-.32 0-.595-.186-.779-.465l-3.346-5.581c-.045-.047-.045-.14-.045-.233V21.07c0-1.675 1.375-3.07 3.025-3.07h2.337Zm-14.208.093c1.237 0 2.291 1.023 2.291 2.326v23.209c0 1.302-1.008 2.325-2.291 2.325h-6.188c-1.283 0-2.291-1.023-2.291-2.325v-23.21c0-1.302 1.008-2.325 2.291-2.325h6.188Zm16.27 5.86h-6.508v15.628l3.255 5.489 3.254-5.489V23.953Zm-16.27-4.93h-6.188c-.779 0-1.375.605-1.375 1.396v1.628h3.942c.275 0 .458.186.458.465s-.183.465-.458.465h-3.942v3.628h1.559c.275 0 .458.186.458.465s-.183.465-.458.465h-1.559v3.628h3.942c.275 0 .458.186.458.465s-.183.465-.458.465h-3.942v3.628h1.559c.275 0 .458.186.458.465 0 .28-.183.465-.458.465h-1.559v3.628h3.942c.275 0 .458.186.458.465 0 .28-.183.465-.458.465h-3.942v2.372c0 .791.596 1.396 1.375 1.396h6.188c.779 0 1.375-.605 1.375-1.396V20.42c0-.791-.596-1.396-1.375-1.396Zm14.208-.093h-2.337c-1.146 0-2.109.977-2.109 2.14v1.953h6.509V21.07c0-1.163-.917-2.14-2.063-2.14Z" fill="#fff"/></svg>