<svg width="471" height="424" fill="none" xmlns="http://www.w3.org/2000/svg"><path fill-rule="evenodd" clip-rule="evenodd" d="M424.478 113.598c17.069 3.438 33.466 5.994 46.522 1.08v5.706c-15.782 4.914-34.426 1.17-47.731-1.512-128.813-25.92-235.335-23.076-325.69 8.73-46.925 16.506-75.686 39.528-85.517 68.436-4.416 12.996-4.819 27.018-5.203 40.572-.845 30.132-1.747 61.29 7.719 90.54 5.433 16.848 14.63 34.002 28.108 52.434 7.546 10.314 16.992 21.708 29.78 27.99 11.174 5.508 24.096 6.876 37.459 7.902a919.118 919.118 0 0 0 51.245 2.466c9.446.18 17.875.09 25.44-2.952 9.446-3.834 16.416-12.042 22.56-19.278l75.072-88.452c13.132-15.48 28.032-33.03 47.616-44.172 17.356-9.9 43.814-16.29 65.99-4.59 4.339 2.304 8.256 5.166 12.038 7.938 3.514 2.592 6.836 5.04 10.484 7.056 14.976 8.298 32.678 8.1 50.63 4.068v5.436c-27.475 5.976-42.47 1.278-53.549-4.86-3.993-2.196-7.622-4.86-11.117-7.434-3.782-2.772-7.353-5.4-11.308-7.488-16.493-8.712-40.109-6.948-60.192 4.482-18.682 10.638-32.621 27.054-46.1 42.93l-75.052 88.452c-6.26 7.362-14.016 16.506-24.788 20.862-7.142 2.88-14.88 3.456-22.867 3.456-1.651 0-3.321-.018-4.992-.054a930.898 930.898 0 0 1-51.571-2.484c-13.978-1.08-27.533-2.52-39.667-8.496-13.92-6.84-23.904-18.864-31.853-29.718-13.824-18.9-23.27-36.54-28.896-53.928C.641 302.671.185 275.508.774 248.859l.084-3.55.046-1.773.096-3.539.1-3.531c.402-13.932.806-28.332 5.471-42.066 10.387-30.564 40.34-54.738 88.992-71.856 91.411-32.184 199.008-35.1 328.915-8.946Zm-307.584 33.84c48.5-14.922 138.778-42.696 171.764 20.088 8.236 15.696 9.888 35.28 4.646 55.17-4.147 15.768-12.365 31.77-25.824 50.364-13.075 18.072-29.184 36.252-50.688 57.222-16.781 16.362-31.603 29.106-49.402 38.052-14.284 7.182-28.992 10.854-42.892 10.854-6.759 0-13.306-.864-19.527-2.61-18.816-5.274-36.038-19.494-47.27-39.024-10.291-17.91-15.015-38.142-18.567-57.33-5.568-30.024-8.736-64.314 9.87-91.062 16.53-23.778 46.674-35.208 67.89-41.724Zm170.036 20.88c-32.256-61.362-121.498-33.93-169.44-19.17-20.948 6.444-50.67 17.694-66.874 41.004-18.26 26.226-15.091 60.084-9.58 89.766 3.532 19.044 8.198 39.096 18.354 56.772 11.002 19.116 27.802 33.03 46.138 38.16 18.298 5.13 40.512 2.178 60.941-8.1 17.587-8.838 32.294-21.474 48.941-37.728 21.427-20.88 37.459-38.988 50.496-56.97 13.324-18.414 21.446-34.236 25.536-49.788 5.145-19.476 3.532-38.628-4.512-53.946Zm-161.415 6.156c39.495-13.572 95.616-27.396 126.816 9.162 7.008 8.19 10.522 17.244 10.522 27 0 4.734-.826 9.648-2.477 14.706-4.838 14.85-14.611 28.818-23.539 40.518-10.695 13.986-22.867 27.684-37.229 41.868-10.541 10.422-22.195 21.042-35.981 28.188-10.829 5.634-22.425 8.568-33.273 8.568-4.455 0-8.794-.486-12.884-1.494-14.342-3.51-27.456-13.572-35.961-27.612-8.045-13.374-11.443-28.818-13.709-42.192-.269-1.494-.5-3.006-.73-4.518-2.592-17.37-4.473-42.75 9.178-62.424 9.312-13.41 24.96-23.508 49.267-31.77Zm69.581-12.456c-23.501 0-48.461 7.11-68.909 14.148-23.904 8.118-39.264 17.982-48.326 31.05-13.306 19.188-11.443 44.118-8.89 61.2.23 1.512.461 3.006.71 4.5 2.247 13.194 5.607 28.458 13.498 41.562 8.256 13.644 20.928 23.4 34.771 26.766 13.594 3.33 29.914.828 44.736-6.894 13.556-7.038 25.095-17.55 35.54-27.864 14.304-14.112 26.419-27.756 37.056-41.688 8.832-11.574 18.508-25.38 23.27-39.978 4.858-14.904 2.266-28.386-7.718-40.068-7.22-8.46-15.84-14.148-25.325-17.712-9.466-3.564-19.795-5.022-30.413-5.022Zm-60.979 39.51c25.075-10.458 69.581-17.334 84.499-2.502 10.099 9.306 14.227 16.344 8.832 28.998-4.608 10.8-13.709 21.618-21.005 30.312l-.269.324c-7.219 8.586-15.091 17.748-23.75 26.532-6.566 6.642-13.843 13.482-22.56 18.306-7.488 4.194-15.782 6.426-23.558 6.426-2.151 0-4.263-.18-6.317-.522-9.946-1.71-18.931-7.596-24.653-16.2-5.78-8.676-7.795-19.008-8.89-27.054-.134-.954-.25-1.926-.364-2.916-1.882-16.902.556-29.97 7.43-39.924 7.834-11.376 21.216-17.874 30.605-21.78Zm54.374-9.18c-17.683 0-38.822 4.662-53.587 10.818-14.573 6.066-24.019 12.78-29.779 21.114-6.624 9.612-8.967 22.284-7.123 38.772.096.954.23 1.926.345 2.88 1.075 7.848 3.034 17.946 8.621 26.316 5.434 8.172 13.958 13.77 23.366 15.39 8.967 1.53 19.373-.54 28.551-5.688 8.505-4.716 15.667-11.43 22.137-17.982 8.602-8.73 16.455-17.856 23.636-26.424l.268-.324c7.239-8.604 16.224-19.314 20.736-29.862 4.532-10.62 2.573-16.938-8.409-27.054l-.019-.018c-5.664-5.652-16.359-7.938-28.743-7.938Zm-9.389 23.49c10.004-.774 15.764.684 17.588 4.428 3.215 6.546-7.051 17.901-18.46 28.66l-1.107 1.039-.555.518-1.114 1.031c-2.668 2.466-5.107 5.274-7.449 7.992-3.552 4.086-7.219 8.298-11.827 11.538-4.224 2.97-9.754 4.806-14.996 4.806-4.588 0-8.947-1.404-11.961-4.734-2.842-3.114-4.224-7.614-4.128-13.392.153-7.2 2.669-13.23 6.201-18.144 3.514-4.914 8.026-8.712 12.135-11.502 9.849-6.696 23.193-11.268 35.673-12.24Zm15.84 5.184c-1.401-2.898-6.816-4.068-15.686-3.384-35.539 2.754-51.936 25.128-52.243 40.122-.096 5.31 1.133 9.414 3.667 12.186 5.76 6.318 17.126 4.734 24.346-.342 4.416-3.096 8.006-7.236 11.481-11.232 2.381-2.754 4.858-5.598 7.603-8.136a456.68 456.68 0 0 0 2.055-1.901l.781-.73c7.744-7.269 20.966-20.54 17.996-26.583Zm156.749-86.904c13.978.27 28.032 2.106 41.626 3.906 8.16 1.062 16.608 2.178 24.921 2.916 21.101 1.908 38.247.954 52.762-3.042v1.872c-14.65 3.942-31.834 4.878-52.934 2.97-8.372-.756-16.839-1.872-25.018-2.934-13.536-1.782-27.533-3.618-41.395-3.888-6.298-.108-13.363.342-17.587 4.644-5.3 5.346-3.322 13.806-2.228 17.19.73 2.286 1.69 4.554 2.631 6.768 1.555 3.654 3.149 7.434 3.801 11.43.749 4.59.212 9.252-.307 13.752-.249 2.142-.499 4.374-.614 6.552-.231 4.644.288 13.122 6.393 17.622 5.453 3.996 12.557 3.312 20.103 2.574 4.109-.396 8.371-.828 12.422-.432 9.85.954 17.971 6.642 25.824 12.132 2.573 1.782 5.223 3.654 7.872 5.292 17.779 10.998 40.397 14.346 61.037 9.828v1.854a87.638 87.638 0 0 1-18.144 1.89c-15.494 0-30.97-4.05-43.949-12.078-2.688-1.674-5.376-3.528-7.949-5.346l-1.486-1.036c-7.201-5.004-14.686-9.894-23.397-10.736-3.859-.378-8.006.036-12.038.414-7.584.756-15.418 1.512-21.485-2.952-6.778-4.986-7.373-14.112-7.123-19.116.115-2.232.384-4.482.633-6.66.5-4.392 1.037-8.928.308-13.284-.615-3.798-2.17-7.47-3.687-11.034-.941-2.25-1.92-4.554-2.688-6.912-1.19-3.69-3.302-12.888 2.65-18.936 4.761-4.806 12.288-5.328 19.046-5.22ZM471 161.334v1.872c-22.138 5.796-45.965 3.978-67.296 2.34-8.717-.666-20.851-.666-25.478 7.038-3.476 5.814-.461 13.41 4.147 17.604 5.049 4.608 12.173 6.876 19.123 8.658 24.269 6.192 47.904 7.686 69.504 4.518v1.818c-7.334 1.08-14.861 1.602-22.579 1.602-15.264 0-31.219-2.07-47.424-6.21-7.2-1.836-14.592-4.194-19.968-9.09-5.242-4.788-8.467-13.122-4.474-19.782 5.165-8.604 18.048-8.658 27.303-7.938 21.35 1.638 45.196 3.456 67.142-2.43ZM114.706 0c-.903 19.098-4.455 37.944-10.599 56.304-2.477 7.362-4.665 15.642.442 20.718 4.07 4.032 10.963 3.96 16.493 3.456 12.096-1.116 24.172-3.816 35.827-6.408 4.934-1.098 10.041-2.25 15.091-3.258 63.443-12.635 127.962-7.22 193.823 1.6l4.822.651c3.216.438 6.435.883 9.658 1.334l4.836.68 2.419.343c25.594 3.636 55.623 7.902 83.482 3.42v1.836c-8.525 1.368-17.261 1.908-25.997 1.908-19.949 0-39.917-2.844-57.773-5.382-4.829-.686-9.651-1.362-14.466-2.023l-4.812-.656c-66.537-8.994-131.67-14.687-195.589-1.947-5.03 1.008-10.118 2.142-15.053 3.24-11.731 2.61-23.846 5.31-36.076 6.444-5.511.504-13.383.648-18.087-4.014-5.817-5.778-3.494-14.634-.864-22.482C108.35 37.602 111.864 18.9 112.766 0h1.94Zm37.152 0a60.666 60.666 0 0 1-6.778 30.348l-.288.558c-.922 1.746-1.862 3.546-1.92 5.382-.154 4.05 4.032 7.272 8.179 8.046 4.359.828 8.967-.27 13.402-1.332l.211-.054c46.003-10.998 93.35-15.3 140.755-12.762 14.17.756 28.531 2.142 42.413 3.492 18.451 1.782 37.536 3.636 56.371 3.996 25.479.522 47.578-1.872 66.797-7.254v1.872c-19.277 5.328-41.395 7.704-66.835 7.182-18.912-.378-38.035-2.214-56.525-4.014-13.862-1.332-28.205-2.736-42.336-3.492-47.194-2.502-94.349 1.764-140.16 12.726l-.211.054c-3.475.828-7.047 1.674-10.637 1.674-1.21 0-2.419-.09-3.629-.324-4.915-.918-9.907-4.86-9.715-9.882.077-2.214 1.114-4.194 2.112-6.102l.307-.558c4.743-9.144 7.008-19.404 6.586-29.556h1.901Z" fill="#575445" fill-opacity=".09"/></svg>