<svg width="64" height="64" fill="none" xmlns="http://www.w3.org/2000/svg"><path d="M0 32C0 14.327 14.327 0 32 0c17.673 0 32 14.327 32 32 0 17.673-14.327 32-32 32C14.327 64 0 49.673 0 32Z" fill="#575445"/><path d="M39.38 20c.235 0 .423.14.47.373a5.37 5.37 0 0 0 4.466 4.434c.188 0 .376.233.517.466v4.294c0 4.013-1.269 7.933-3.572 11.246a20.035 20.035 0 0 1-9.073 7.14C32.094 48 32.047 48 32 48c-.094 0-.141-.047-.188-.047a20.034 20.034 0 0 1-9.073-7.14 19.284 19.284 0 0 1-3.572-11.246v-4.294c0-.233.14-.42.376-.466 2.256-.327 4.09-2.194 4.466-4.434a.505.505 0 0 1 .47-.373H39.38Zm-.423.887H24.855c-.517 2.38-2.398 4.2-4.795 4.76v3.873c0 3.873 1.175 7.56 3.385 10.733 2.115 3.034 5.03 5.32 8.461 6.72 3.432-1.353 6.346-3.686 8.462-6.72 2.209-3.173 3.384-6.86 3.384-10.733v-3.873c-2.397-.56-4.278-2.38-4.795-4.76Zm-2.914 8.866c.188-.186.517-.14.61.094.189.186.142.513-.046.653l-6.44 5.18a.506.506 0 0 1-.282.093h-.047c-.141 0-.235-.093-.33-.186l-2.444-3.36c-.14-.234-.094-.514.094-.654.235-.14.517-.093.658.094l2.163 2.94 6.064-4.854Z" fill="#fff"/></svg>