<svg width="64" height="64" fill="none" xmlns="http://www.w3.org/2000/svg"><path d="M0 32C0 14.327 14.327 0 32 0c17.673 0 32 14.327 32 32 0 17.673-14.327 32-32 32C14.327 64 0 49.673 0 32Z" fill="#575445"/><path d="M43.527 21.988H27.24a4.793 4.793 0 0 0-4.387-2.821C20.147 19.213 18 21.34 18 23.977v16.047c0 2.636 2.147 4.81 4.853 4.81h20.674c1.4 0 2.473-1.11 2.473-2.452V24.485a2.488 2.488 0 0 0-2.473-2.497Zm-24.594 1.988c0-2.127 1.727-3.884 3.92-3.884 2.194 0 3.92 1.71 3.92 3.884v13.227a4.83 4.83 0 0 0-3.92-1.989 4.896 4.896 0 0 0-3.92 1.989V23.976Zm0 16.094c0-2.127 1.727-3.885 3.92-3.885 2.194 0 3.92 1.712 3.92 3.885 0 2.174-1.726 3.885-3.92 3.885-2.193 0-3.92-1.758-3.92-3.885Zm26.134 2.312c0 .833-.7 1.526-1.54 1.526H25.7c1.213-.878 2.007-2.266 2.007-3.884V23.976c0-.37-.047-.74-.14-1.063h15.96c.84 0 1.54.693 1.54 1.572v17.897Z" fill="#fff"/></svg>