<svg width="64" height="64" fill="none" xmlns="http://www.w3.org/2000/svg"><path d="M0 32C0 14.327 14.327 0 32 0c17.673 0 32 14.327 32 32 0 17.673-14.327 32-32 32C14.327 64 0 49.673 0 32Z" fill="#575445"/><path d="m32.793 29.32.084.006c.11.016.215.068.29.179l4.76 6.746 1.213-1.895c.093-.138.233-.23.373-.23.14 0 .28.046.374.184l4.246 6.1h1.4c.28 0 .467.184.467.461s-.187.462-.467.462H18.467c-.28 0-.467-.184-.467-.462 0-.277.187-.462.467-.462h1.353L25 31.492a.491.491 0 0 1 .42-.231c.187 0 .327.092.42.23l2.473 3.974 4.107-5.96c.093-.092.233-.185.373-.185Zm-.046 1.34-4.154 5.96c-.046.093-.233.185-.373.185-.14 0-.28-.092-.373-.23l-2.427-3.928-4.527 7.808H42.92l-3.5-4.99-1.213 1.895c-.094.138-.234.23-.374.23a.426.426 0 0 1-.373-.184l-4.713-6.746Zm8.586-7.993c1.68 0 3.034 1.34 3.034 3.003s-1.354 3.003-3.034 3.003c-1.68 0-3.033-1.34-3.033-3.003s1.353-3.003 3.033-3.003Zm0 .924c-1.166 0-2.1.924-2.1 2.079 0 1.155.934 2.08 2.1 2.08 1.167 0 2.1-.925 2.1-2.08s-.933-2.08-2.1-2.08Z" fill="#fff"/></svg>