<svg width="64" height="64" fill="none" xmlns="http://www.w3.org/2000/svg"><path d="M0 32C0 14.327 14.327 0 32 0c17.673 0 32 14.327 32 32 0 17.673-14.327 32-32 32C14.327 64 0 49.673 0 32Z" fill="#575445"/><path d="M44.52 21.733c-.238-.093-5.925-1.866-9.433-.046-1.99 1.026-3.507 2.473-4.266 4.06-.284-1.494-1.09-3.034-2.322-4.434C25.939 18.42 19.968 18 19.731 18a.514.514 0 0 0-.522.42c0 .233-.521 6.02 2.086 8.96 1.848 2.053 4.123 3.22 6.02 3.22.852 0 1.61-.233 2.227-.7-.711 2.24-1.707 7.467-.095 15.727.047.233.237.373.474.373h.095a.484.484 0 0 0 .379-.56c-1.943-9.8 0-15.213.427-16.24.71 1.26 2.227 1.913 4.076 1.913 1.422 0 3.033-.373 4.597-1.213 3.508-1.773 5.261-7.327 5.309-7.56.094-.28-.048-.513-.285-.607Zm-22.514 5.04c-1.944-2.146-1.944-6.393-1.896-7.793 1.422.14 5.735.793 7.678 2.94 1.47 1.633 2.275 3.64 2.18 5.227-.047.793-.379 1.446-.853 1.866-1.611 1.354-4.787.327-7.11-2.24Zm17.063 2.287c-3.081 1.587-6.494 1.4-7.49-.42-.33-.56-.33-1.26-.094-2.053.474-1.54 2.038-3.127 4.029-4.107.995-.513 2.227-.7 3.46-.7 1.99 0 3.934.467 4.787.7-.474 1.353-2.086 5.273-4.692 6.58Z" fill="#fff"/></svg>