<svg width="64" height="64" fill="none" xmlns="http://www.w3.org/2000/svg"><path d="M0 32C0 14.327 14.327 0 32 0c17.673 0 32 14.327 32 32 0 17.673-14.327 32-32 32C14.327 64 0 49.673 0 32Z" fill="#575445"/><path d="M28.967 18c2.94 0 5.693 1.12 7.746 3.22 4.2 4.153 4.294 10.873.327 15.167l8.82 8.82a.451.451 0 0 1 0 .653.504.504 0 0 1-.327.14.504.504 0 0 1-.326-.14l-8.82-8.82c-2.054 1.867-4.667 2.893-7.42 2.893-2.94 0-5.694-1.166-7.747-3.22-4.293-4.246-4.293-11.246 0-15.493 2.053-2.1 4.807-3.22 7.747-3.22Zm0 .933a9.956 9.956 0 0 0-7.094 2.94 10.027 10.027 0 0 0 0 14.187A9.956 9.956 0 0 0 28.967 39c2.706 0 5.18-1.073 7.093-2.94l.23-.238a10.027 10.027 0 0 0-.23-13.949 9.956 9.956 0 0 0-7.093-2.94Zm0 6.394c3.22 0 5.74 2.8 5.833 2.94.14.186.14.466 0 .606-.093.094-2.613 2.94-5.833 2.94s-5.74-2.8-5.834-2.94a.49.49 0 0 1 0-.606c.094-.094 2.614-2.94 5.834-2.94Zm0 .933c-2.194 0-4.107 1.633-4.807 2.333.7.7 2.613 2.334 4.807 2.334 2.193 0 4.106-1.634 4.806-2.334-.7-.7-2.613-2.333-4.806-2.333Zm0 1.307c.56 0 1.026.466 1.026 1.026s-.466 1.027-1.026 1.027-1.027-.467-1.027-1.027c0-.56.467-1.026 1.027-1.026Z" fill="#fff"/></svg>