<svg width="555" height="435" fill="none" xmlns="http://www.w3.org/2000/svg"><path fill-rule="evenodd" clip-rule="evenodd" d="M338.918 36.174c25.824 6.174 54.644 21.996 58.08 47.898 1.728 13.086-3.436 25.704-7.987 36.846l-27.552 67.392c-9.427 23.058-20.102 49.176-15.59 75.132 4.915 28.206 29.107 52.326 58.809 58.662 8.852 1.89 18.394 2.376 27.629 2.862 16.589.846 33.735 1.728 47.885 10.638 22.214 13.986 26.534 41.13 27.13 56.07.71 18.306-3.015 32.13-11.424 42.282-.288.342-.576.702-.903 1.044h-7.603c1.421-1.476 2.746-2.916 3.955-4.356 7.546-9.108 10.887-21.798 10.215-38.772-.557-13.914-4.474-39.132-24.576-51.786-12.256-7.723-27.071-8.789-42.804-9.623l-2.201-.115c-9.466-.486-19.258-.99-28.57-2.97-31.949-6.822-57.945-32.742-63.225-63.072-4.762-27.378 6.681-55.404 15.897-77.94l27.552-67.374c4.301-10.548 9.197-22.5 7.642-34.254-3.072-23.202-29.799-37.602-53.779-43.326-59.386-14.202-122.016-.054-181.076 15.66-29.587 7.866-56.025 15.48-79.872 29.178-5.913 3.384-11.75 7.218-17.395 10.926-11.213 7.38-22.81 14.994-35.904 19.782-7.027 2.574-15.11 4.176-23.251 4.338v-5.382c7.373-.162 14.765-1.638 21.158-3.978 12.442-4.554 23.75-11.988 34.695-19.17 5.721-3.762 11.616-7.65 17.683-11.124 24.46-14.022 52.416-22.086 81.312-29.772 59.808-15.912 123.302-30.222 184.07-15.696Zm22.388-25.308c26.688 6.894 45.062 16.164 57.811 29.196 10.31 10.53 32.697 41.22 17.721 98.316-4.339 16.488-10.828 32.616-17.126 48.24-6.47 16.02-13.152 32.598-17.434 49.5-2.169 8.514-3.82 18.324.192 26.586 2.65 5.418 7.68 10.152 15.399 14.49 13.958 7.848 30.355 11.43 46.195 14.886l2.859.626c16.227 3.565 32.811 7.503 46.792 16.258 21.312 13.338 35.77 37.872 39.648 67.302 2.592 19.638.672 39.366-2.361 58.734h-1.94c3.034-19.332 4.973-39.006 2.4-58.518-3.82-28.908-17.971-52.974-38.822-66.024-13.288-8.316-29.141-12.231-44.75-15.681l-2.834-.624-1.414-.309c-15.994-3.492-32.544-7.11-46.752-15.102-8.064-4.536-13.364-9.54-16.167-15.282-4.262-8.766-2.553-18.954-.307-27.756 4.32-17.01 11.021-33.642 17.491-49.734 6.279-15.552 12.768-31.644 17.05-48.024 14.765-56.25-7.162-86.346-17.261-96.678-12.48-12.762-30.566-21.87-56.909-28.656C284.544-7.08 197.203 1.164 85.939 38.532L79.2 40.818C53.645 49.458 27.226 58.386 0 58.35v-1.8c23.57.047 46.582-6.755 68.984-14.208l3.196-1.069c2.128-.714 4.25-1.431 6.367-2.147l6.759-2.286c111.648-37.494 199.353-45.756 276-25.974Zm-63.13 61.704c26.515 3.996 41.933 20.556 45.466 35.208 3.388 14.042-1.921 28.021-7.587 41.594l-.741 1.768-.37.882-.941 2.25c-19.449 46.548-25.267 86.058-17.779 120.762 10.963 50.778 49.574 79.92 82.982 86.292 3.149.612 6.432 1.062 9.62 1.494 7.584 1.062 15.417 2.16 22.483 5.328 16.224 7.326 26.4 25.848 24.729 45.054-.633 7.218-2.784 14.526-6.355 21.798h-2.112c3.379-6.678 5.856-14.058 6.547-21.942 1.613-18.486-8.102-36.288-23.654-43.29-6.778-3.06-14.477-4.122-21.926-5.166-3.207-.432-6.509-.9-9.716-1.512-20.755-3.96-39.878-14.904-55.334-31.662-14.342-15.57-24.691-35.46-29.146-56.034-7.564-35.064-1.728-74.898 17.876-121.788l.94-2.25c5.952-14.148 12.077-28.764 8.621-43.182-3.398-14.058-18.278-29.97-43.91-33.84-14.17-2.124-28.685.306-42.72 2.682-4.762.792-9.658 1.62-14.477 2.25a428.146 428.146 0 0 0-60.787 12.564c-40.128 11.394-77.76 28.368-111.879 50.454-1.728 1.098-3.436 2.232-5.164 3.366-11.847 7.794-24.116 15.84-38.266 19.35-8.026 1.998-16.205 2.43-24.576 2.592v-1.8c8.218-.162 16.262-.594 24.096-2.52 13.824-3.438 25.94-11.394 37.651-19.098 1.728-1.134 3.437-2.268 5.165-3.384 34.291-22.176 72.096-39.222 112.416-50.67a427.242 427.242 0 0 1 61.075-12.636c4.781-.63 9.677-1.44 14.4-2.25 14.189-2.394 28.877-4.86 43.373-2.664Zm-22.771 208.224c4.07 6.984 4.301 15.048 4.531 22.86.134 5.094.288 10.35 1.498 15.246 3.379 13.662 14.572 25.434 35.27 37.08 13.19 7.434 27.187 13.734 41.626 18.774l3.801 1.296c15.975 5.49 34.099 11.718 41.357 26.478 4.282 8.748 3.917 19.872-.979 29.754A41.877 41.877 0 0 1 401.03 435h-2.208a36.868 36.868 0 0 0 1.94-3.474c4.665-9.414 5.03-19.98.979-28.242-6.209-12.661-20.521-18.64-35.268-23.809l-1.671-.582c-1.114-.386-2.23-.769-3.343-1.151l-3.801-1.314a259.894 259.894 0 0 1-41.952-18.9c-21.159-11.916-32.64-24.066-36.135-38.214-1.267-5.076-1.421-10.44-1.555-15.606-.23-7.956-.442-15.462-4.301-22.068-7.795-13.41-27.571-16.29-42.221-12.186-12.652 3.528-23.654 11.088-34.291 18.396-2.457 1.674-4.915 3.366-7.392 4.986-27.955 18.504-61.44 32.994-105.389 45.576C58.752 345.774 29.414 352.524 0 350.4v-1.818c29.146 2.142 58.31-4.59 83.846-11.898 43.757-12.528 77.069-26.928 104.871-45.306 2.457-1.638 4.896-3.312 7.353-4.986 10.772-7.398 21.908-15.048 34.868-18.666 15.379-4.302 36.172-1.188 44.467 13.068Zm-29.991 51.246c3.149 4.482 4.532 9.738 5.876 14.832.403 1.548.806 3.078 1.248 4.59 6.028 20.268 21.6 36.36 40.646 42.03 4.666 1.386 9.6 2.196 14.362 2.97 3.667.594 7.468 1.206 11.155 2.088 10.464 2.502 18.086 7.11 22.022 13.338 4.704 7.452 3.802 15.804 1.056 23.112h-2.016c2.765-7.038 3.802-15.102-.691-22.194-4.646-7.344-13.901-10.854-20.851-12.51-3.61-.864-7.373-1.476-11.002-2.07-4.838-.774-9.83-1.584-14.611-3.006-19.661-5.85-35.731-22.428-41.914-43.272-.46-1.53-.864-3.078-1.267-4.644-1.305-4.932-2.649-10.062-5.606-14.274-7.085-10.044-21.754-12.618-33.139-10.692-11.175 1.89-21.428 7.29-31.316 12.528l-3.244 1.692C134.304 358.446 71.501 382.62 0 381.162v-1.782c71.098 1.458 133.574-22.608 175.2-44.388l3.206-1.71c10.042-5.292 20.429-10.782 31.93-12.708 12.019-2.034 27.514.738 35.078 11.466Zm-37.036 43.884c4.628 3.547 7.208 8.608 9.558 13.655l.637 1.375c1.67 3.618 3.398 7.344 5.798 10.512 5.607 7.362 14.746 11.574 23.559 15.642 1.344.612 2.668 1.224 3.974 1.854 4.128 1.944 8.774 4.374 11.405 8.424 1.555 2.376 2.265 5.076 2.669 7.614h-1.94c-.384-2.268-1.036-4.644-2.361-6.678-2.381-3.636-6.739-5.922-10.637-7.758a792.178 792.178 0 0 0-3.955-1.836l-1.753-.811c-8.482-3.934-17.02-8.166-22.516-15.407-2.534-3.33-4.301-7.146-6.01-10.854-2.553-5.526-4.953-10.746-9.638-14.328-5.491-4.194-14.016-5.526-22.79-3.546-6.759 1.512-13.095 4.626-19.22 7.632a554.23 554.23 0 0 1-3.244 1.584C111.072 407.478 53.318 414.372 0 418.656v-1.8c53.107-4.284 110.554-11.16 161.03-35.46a259.392 259.392 0 0 0 3.226-1.584c6.24-3.042 12.691-6.21 19.68-7.776 9.485-2.142 18.394-.72 24.442 3.888Zm-25.92 52.254c2.995 1.818 5.779 3.996 8.486 6.084l.941.738h-3.015c-2.38-1.872-4.857-3.726-7.449-5.31-13.114-7.92-30.951-9.324-53.05-4.158-6.547 1.53-13.113 3.492-19.469 5.382-4.704 1.386-9.504 2.826-14.342 4.086h-7.565c7.239-1.602 14.362-3.726 21.331-5.796 6.375-1.908 12.98-3.87 19.584-5.418 22.618-5.292 40.973-3.816 54.548 4.392Zm-48.768-276.12c38.419-15.138 118.368-46.62 147.859-31.428 6.125 3.15 9.849 8.172 11.059 14.922 4.987 27.632-25.485 60.802-42.419 76.783l-1.159 1.087a234.006 234.006 0 0 1-5.824 5.254c-26.304 22.914-57.83 40.122-90.547 57.168-39.552 20.628-84.384 43.992-133.21 45.54-1.42.054-2.841.072-4.223.072-5.492 0-10.56-.36-15.226-1.098v-1.818c5.798.936 12.25 1.278 19.392 1.044 48.365-1.53 92.986-24.786 132.346-45.306 32.601-16.992 64.012-34.128 90.163-56.916 12.883-11.232 54.451-50.256 48.806-81.504-1.113-6.174-4.512-10.764-10.08-13.644-28.665-14.778-108.057 16.488-146.189 31.5-8.102 3.186-14.476 5.706-18.24 6.948C77.606 173.352 34.234 187.608 0 213.132v-2.304c34.291-25.146 77.26-39.294 115.565-51.876 3.705-1.206 10.061-3.726 18.125-6.894Zm-44.372 47.25c10.503-3.564 26.746-4.194 37.632 2.862 6.663 4.32 10.253 10.926 10.349 19.098.135 9.99-6.105 19.89-19.065 30.24-17.895 14.31-39.226 25.344-63.437 32.832-13.075 4.05-24.346 6.03-34.483 6.03-4.628 0-9.044-.414-13.268-1.242-2.13-.396-4.838-1.08-7.046-2.502v-2.322c2.016 1.836 5.107 2.61 7.43 3.078 13.19 2.538 28.052 1.026 46.772-4.752 23.961-7.416 45.081-18.342 62.784-32.49 12.499-9.99 18.508-19.422 18.393-28.854-.096-7.668-3.302-13.608-9.523-17.64-8.851-5.742-23.597-6.822-35.866-2.646l-5.03 1.71c-21.83 7.398-44.41 15.03-62.266 29.34C11.54 240.996 3.686 251.85 0 263.1v-5.328c4.262-9.846 11.597-19.206 21.446-27.09 9.063-7.254 19.277-12.816 29.972-17.478 10.713-4.68 21.888-8.46 32.89-12.186l5.01-1.71Zm135.629-46.188c10.906-.576 19.027 2.412 22.291 8.154 3.168 5.544 1.46 12.924-4.819 20.772-12 15.03-32.006 24.318-51.821 24.318-1.286 0-2.592-.036-3.878-.126-2.246-.144-4.608-.396-6.758-1.386-5.78-2.664-7.469-9.36-7.181-14.274.576-9.576 7.142-19.242 17.529-25.848 5.28-3.348 11.156-6.102 17.108-8.1 5.932-1.998 11.961-3.222 17.529-3.51Zm2.573 1.728c-.806 0-1.632.036-2.477.072-10.79.558-23.366 4.77-33.638 11.304-4.954 3.132-8.986 7.002-11.866 11.196-2.861 4.212-4.55 8.748-4.838 13.266-.269 4.356 1.171 10.278 6.105 12.546 1.844.846 3.994 1.08 6.048 1.206 20.41 1.278 41.626-7.938 54.029-23.472 5.799-7.254 7.469-13.95 4.666-18.846-2.669-4.68-9.159-7.272-18.029-7.272Z" fill="#575445" fill-opacity=".09"/></svg>