<svg width="615" height="48" fill="none" xmlns="http://www.w3.org/2000/svg"><path d="M0 16C0 7.163 7.163 0 16 0h583c8.837 0 16 7.163 16 16v16c0 8.837-7.163 16-16 16H16C7.163 48 0 40.837 0 32V16Z" fill="#292C32"/><path d="M51.181 17.333v.814h-3.333v2.585h2.706v.814h-2.706V25h-1.001v-7.667h4.334Zm1.726.66a.658.658 0 0 1-.484-.198.658.658 0 0 1-.198-.484c0-.19.066-.352.198-.484a.658.658 0 0 1 .484-.198.61.61 0 0 1 .462.198.658.658 0 0 1 .198.484c0 .19-.066.352-.198.484a.61.61 0 0 1-.462.198Zm.484.979V25H52.39v-6.028h1.001Zm2.707.979a1.93 1.93 0 0 1 .748-.803c.33-.19.73-.286 1.199-.286v1.034h-.264c-1.122 0-1.683.609-1.683 1.826V25h-1.001v-6.028h1.001v.979Zm5.236 5.148c-.462 0-.876-.077-1.242-.231a2.16 2.16 0 0 1-.87-.66 1.784 1.784 0 0 1-.352-.979h1.035c.029.3.168.546.417.737.257.19.59.286 1.002.286.38 0 .681-.084.901-.253a.773.773 0 0 0 .33-.638.618.618 0 0 0-.352-.583c-.234-.132-.597-.26-1.089-.385a8.964 8.964 0 0 1-1.1-.352 2.088 2.088 0 0 1-.726-.539c-.197-.242-.296-.557-.296-.946 0-.308.091-.59.275-.847.183-.257.443-.458.78-.605a2.752 2.752 0 0 1 1.156-.231c.667 0 1.206.169 1.616.506.411.337.631.8.66 1.386h-1a1.027 1.027 0 0 0-.386-.759c-.227-.19-.535-.286-.924-.286-.359 0-.645.077-.857.231a.714.714 0 0 0-.32.605c0 .198.063.363.188.495.132.125.293.227.483.308.199.073.47.158.815.253.432.117.784.235 1.055.352.272.11.503.279.694.506.198.227.3.524.308.891 0 .33-.092.627-.275.891a1.867 1.867 0 0 1-.782.627c-.33.147-.71.22-1.144.22Zm4.835-5.302v3.553c0 .293.062.502.187.627.124.117.34.176.649.176h.737V25h-.902c-.558 0-.976-.128-1.254-.385-.28-.257-.418-.678-.418-1.265v-3.553h-.781v-.825h.78v-1.518h1.002v1.518h1.573v.825h-1.573Zm10.25 3.498h-3.344L72.459 25h-1.056l2.772-7.623h1.155L78.091 25h-1.056l-.616-1.705Zm-.286-.814-1.386-3.872-1.386 3.872h2.772Zm3.683-4.488a.658.658 0 0 1-.484-.198.658.658 0 0 1-.198-.484c0-.19.066-.352.198-.484a.658.658 0 0 1 .484-.198.61.61 0 0 1 .462.198.658.658 0 0 1 .198.484c0 .19-.066.352-.198.484a.61.61 0 0 1-.462.198Zm.484.979V25h-1v-6.028h1Zm1.332 2.992c0-.616.125-1.155.374-1.617.25-.47.59-.832 1.023-1.089a2.87 2.87 0 0 1 1.474-.385c.47 0 .906.11 1.31.33.403.213.71.495.923.847v-3.19h1.012V25h-1.012v-1.133c-.198.36-.491.656-.88.891-.388.227-.843.341-1.364.341a2.79 2.79 0 0 1-1.463-.396 2.777 2.777 0 0 1-1.023-1.111c-.25-.477-.374-1.02-.374-1.628Zm5.104.011c0-.455-.092-.85-.275-1.188a1.894 1.894 0 0 0-.748-.77 1.963 1.963 0 0 0-1.023-.275c-.374 0-.715.088-1.023.264a1.915 1.915 0 0 0-.737.77c-.183.337-.275.733-.275 1.188 0 .462.092.865.275 1.21.183.337.43.598.737.781.308.176.65.264 1.023.264.374 0 .715-.088 1.023-.264a1.97 1.97 0 0 0 .748-.781c.183-.345.275-.744.275-1.199ZM96.53 25l-3.157-3.498V25h-1v-7.667h1v3.553l3.168-3.553h1.265l-3.476 3.839L97.84 25h-1.31Zm2.944-7.007a.658.658 0 0 1-.484-.198.658.658 0 0 1-.198-.484c0-.19.066-.352.198-.484a.658.658 0 0 1 .484-.198.61.61 0 0 1 .462.198.66.66 0 0 1 .198.484.66.66 0 0 1-.198.484.61.61 0 0 1-.462.198Zm.484.979V25h-1v-6.028h1Zm2.927.825v3.553c0 .293.063.502.187.627.125.117.341.176.649.176h.737V25h-.902c-.557 0-.975-.128-1.254-.385-.278-.257-.418-.678-.418-1.265v-3.553h-.781v-.825h.781v-1.518h1.001v1.518h1.573v.825h-1.573ZM123.112 20.692c.304.048.58.172.828.372.256.2.456.448.6.744.152.296.228.612.228.948 0 .424-.108.808-.324 1.152-.216.336-.532.604-.948.804-.408.192-.892.288-1.452.288h-3.12v-8.364h3c.568 0 1.052.096 1.452.288.4.184.7.436.9.756.2.32.3.68.3 1.08 0 .496-.136.908-.408 1.236a2.23 2.23 0 0 1-1.056.696Zm-3.096-.444h1.836c.512 0 .908-.12 1.188-.36.28-.24.42-.572.42-.996 0-.424-.14-.756-.42-.996-.28-.24-.684-.36-1.212-.36h-1.812v2.712Zm1.932 3.852c.544 0 .968-.128 1.272-.384.304-.256.456-.612.456-1.068 0-.464-.16-.828-.48-1.092-.32-.272-.748-.408-1.284-.408h-1.896V24.1h1.932Zm3.927-2.412c0-.672.136-1.26.408-1.764a2.964 2.964 0 0 1 1.116-1.188 3.11 3.11 0 0 1 1.596-.42c.576 0 1.076.124 1.5.372.424.248.74.56.948.936v-1.2h1.104V25h-1.104v-1.224c-.216.384-.54.704-.972.96-.424.248-.92.372-1.488.372a2.98 2.98 0 0 1-1.584-.432 3.03 3.03 0 0 1-1.116-1.212c-.272-.52-.408-1.112-.408-1.776Zm5.568.012c0-.496-.1-.928-.3-1.296a2.065 2.065 0 0 0-.816-.84 2.14 2.14 0 0 0-1.116-.3c-.408 0-.78.096-1.116.288a2.09 2.09 0 0 0-.804.84c-.2.368-.3.8-.3 1.296 0 .504.1.944.3 1.32.2.368.468.652.804.852a2.21 2.21 0 0 0 1.116.288c.408 0 .78-.096 1.116-.288.344-.2.616-.484.816-.852.2-.376.3-.812.3-1.308Zm6.154-3.396c.8 0 1.448.244 1.944.732.496.48.744 1.176.744 2.088V25h-1.08v-3.72c0-.656-.164-1.156-.492-1.5-.328-.352-.776-.528-1.344-.528-.576 0-1.036.18-1.38.54-.336.36-.504.884-.504 1.572V25h-1.092v-6.576h1.092v.936c.216-.336.508-.596.876-.78a2.774 2.774 0 0 1 1.236-.276Zm7.184.012c.568 0 1.064.124 1.488.372.432.248.752.56.96.936v-1.2h1.104v6.72c0 .6-.128 1.132-.384 1.596-.256.472-.624.84-1.104 1.104-.472.264-1.024.396-1.656.396-.864 0-1.584-.204-2.16-.612a2.392 2.392 0 0 1-1.02-1.668h1.08c.12.4.368.72.744.96.376.248.828.372 1.356.372.6 0 1.088-.188 1.464-.564.384-.376.576-.904.576-1.584v-1.38a2.628 2.628 0 0 1-.96.96c-.424.256-.92.384-1.488.384a3.043 3.043 0 0 1-1.596-.432 3.03 3.03 0 0 1-1.116-1.212c-.272-.52-.408-1.112-.408-1.776 0-.672.136-1.26.408-1.764a2.964 2.964 0 0 1 1.116-1.188 3.11 3.11 0 0 1 1.596-.42Zm2.448 3.384c0-.496-.1-.928-.3-1.296a2.065 2.065 0 0 0-.816-.84 2.14 2.14 0 0 0-1.116-.3c-.408 0-.78.096-1.116.288a2.09 2.09 0 0 0-.804.84c-.2.368-.3.8-.3 1.296 0 .504.1.944.3 1.32.2.368.468.652.804.852a2.21 2.21 0 0 0 1.116.288c.408 0 .78-.096 1.116-.288.344-.2.616-.484.816-.852.2-.376.3-.812.3-1.308Zm8.949-.24c0 .208-.012.428-.036.66h-5.256c.04.648.26 1.156.66 1.524.408.36.9.54 1.476.54.472 0 .864-.108 1.176-.324.32-.224.544-.52.672-.888h1.176a2.856 2.856 0 0 1-1.056 1.548c-.528.392-1.184.588-1.968.588-.624 0-1.184-.14-1.68-.42a2.995 2.995 0 0 1-1.152-1.188c-.28-.52-.42-1.12-.42-1.8 0-.68.136-1.276.408-1.788a2.836 2.836 0 0 1 1.14-1.176c.496-.28 1.064-.42 1.704-.42.624 0 1.176.136 1.656.408.48.272.848.648 1.104 1.128.264.472.396 1.008.396 1.608Zm-1.128-.228c0-.416-.092-.772-.276-1.068a1.737 1.737 0 0 0-.756-.684c-.312-.16-.66-.24-1.044-.24-.552 0-1.024.176-1.416.528-.384.352-.604.84-.66 1.464h4.152Zm3.661-1.74c.192-.376.464-.668.816-.876.36-.208.796-.312 1.308-.312v1.128h-.288c-1.224 0-1.836.664-1.836 1.992V25h-1.092v-6.576h1.092v1.068Zm10.772 1.2c.304.048.58.172.828.372.256.2.456.448.6.744.152.296.228.612.228.948 0 .424-.108.808-.324 1.152-.216.336-.532.604-.948.804-.408.192-.892.288-1.452.288h-3.12v-8.364h3c.568 0 1.052.096 1.452.288.4.184.7.436.9.756.2.32.3.68.3 1.08 0 .496-.136.908-.408 1.236a2.23 2.23 0 0 1-1.056.696Zm-3.096-.444h1.836c.512 0 .908-.12 1.188-.36.28-.24.42-.572.42-.996 0-.424-.14-.756-.42-.996-.28-.24-.684-.36-1.212-.36h-1.812v2.712Zm1.932 3.852c.544 0 .968-.128 1.272-.384.304-.256.456-.612.456-1.068 0-.464-.16-.828-.48-1.092-.32-.272-.748-.408-1.284-.408h-1.896V24.1h1.932Zm7.203 1.008a3.4 3.4 0 0 1-1.68-.42 3.053 3.053 0 0 1-1.176-1.188c-.28-.52-.42-1.12-.42-1.8 0-.672.144-1.264.432-1.776.296-.52.696-.916 1.2-1.188a3.424 3.424 0 0 1 1.692-.42c.624 0 1.188.14 1.692.42.504.272.9.664 1.188 1.176.296.512.444 1.108.444 1.788 0 .68-.152 1.28-.456 1.8a3.09 3.09 0 0 1-1.212 1.188c-.512.28-1.08.42-1.704.42Zm0-.96c.392 0 .76-.092 1.104-.276.344-.184.62-.46.828-.828.216-.368.324-.816.324-1.344 0-.528-.104-.976-.312-1.344a2.003 2.003 0 0 0-.816-.816 2.237 2.237 0 0 0-1.092-.276c-.4 0-.768.092-1.104.276a1.951 1.951 0 0 0-.792.816c-.2.368-.3.816-.3 1.344 0 .536.096.988.288 1.356.2.368.464.644.792.828.328.176.688.264 1.08.264Zm6.14-4.824V23.2c0 .32.068.548.204.684.136.128.372.192.708.192h.804V25h-.984c-.608 0-1.064-.14-1.368-.42-.304-.28-.456-.74-.456-1.38v-3.876h-.852v-.9h.852v-1.656h1.092v1.656h1.716v.9h-1.716Zm4.371 0V23.2c0 .32.068.548.204.684.136.128.372.192.708.192h.804V25h-.984c-.608 0-1.064-.14-1.368-.42-.304-.28-.456-.74-.456-1.38v-3.876h-.852v-.9h.852v-1.656h1.092v1.656h1.716v.9h-1.716Zm4.131-3.204V25h-1.092v-8.88h1.092Zm7.862 5.34c0 .208-.012.428-.036.66h-5.256c.04.648.26 1.156.66 1.524.408.36.9.54 1.476.54.472 0 .864-.108 1.176-.324.32-.224.544-.52.672-.888h1.176a2.856 2.856 0 0 1-1.056 1.548c-.528.392-1.184.588-1.968.588-.624 0-1.184-.14-1.68-.42a2.995 2.995 0 0 1-1.152-1.188c-.28-.52-.42-1.12-.42-1.8 0-.68.136-1.276.408-1.788a2.836 2.836 0 0 1 1.14-1.176c.496-.28 1.064-.42 1.704-.42.624 0 1.176.136 1.656.408.48.272.848.648 1.104 1.128.264.472.396 1.008.396 1.608Zm-1.128-.228c0-.416-.092-.772-.276-1.068a1.737 1.737 0 0 0-.756-.684c-.312-.16-.66-.24-1.044-.24-.552 0-1.024.176-1.416.528-.384.352-.604.84-.66 1.464h4.152ZM35.587 27.443a.676.676 0 0 0 .679-.69.675.675 0 0 0-.679-.682h-7.788c-.287 0-.473-.209-.514-.522l-.11-.71h8.487c1.084 0 1.66-.662 1.817-1.761l.494-3.363c.013-.097.027-.216.027-.3 0-.452-.295-.765-.836-.765H26.305l-.096-.675c-.089-.648-.363-.975-1.172-.975h-2.303a.75.75 0 0 0 0 1.497h2.035l1.036 7.198c.157 1.086.733 1.748 1.816 1.748h7.966ZM28.19 31c.693 0 1.248-.564 1.248-1.267s-.555-1.267-1.248-1.267c-.692 0-1.247.564-1.247 1.267S27.498 31 28.19 31Zm6.286 0c.693 0 1.248-.564 1.248-1.267s-.555-1.267-1.248-1.267c-.692 0-1.254.564-1.254 1.267S33.784 31 34.476 31ZM249.112 20.692c.304.048.58.172.828.372.256.2.456.448.6.744.152.296.228.612.228.948 0 .424-.108.808-.324 1.152-.216.336-.532.604-.948.804-.408.192-.892.288-1.452.288h-3.12v-8.364h3c.568 0 1.052.096 1.452.288.4.184.7.436.9.756.2.32.3.68.3 1.08 0 .496-.136.908-.408 1.236a2.23 2.23 0 0 1-1.056.696Zm-3.096-.444h1.836c.512 0 .908-.12 1.188-.36.28-.24.42-.572.42-.996 0-.424-.14-.756-.42-.996-.28-.24-.684-.36-1.212-.36h-1.812v2.712Zm1.932 3.852c.544 0 .968-.128 1.272-.384.304-.256.456-.612.456-1.068 0-.464-.16-.828-.48-1.092-.32-.272-.748-.408-1.284-.408h-1.896V24.1h1.932Zm5.427-4.608c.192-.376.464-.668.816-.876.36-.208.796-.312 1.308-.312v1.128h-.288c-1.224 0-1.836.664-1.836 1.992V25h-1.092v-6.576h1.092v1.068Zm3.949-2.136a.718.718 0 0 1-.528-.216.718.718 0 0 1-.216-.528c0-.208.072-.384.216-.528a.718.718 0 0 1 .528-.216c.2 0 .368.072.504.216.144.144.216.32.216.528a.718.718 0 0 1-.216.528.666.666 0 0 1-.504.216Zm.528 1.068V25h-1.092v-6.576h1.092Zm1.453 3.264c0-.672.136-1.26.408-1.764a2.964 2.964 0 0 1 1.116-1.188 3.11 3.11 0 0 1 1.596-.42c.576 0 1.076.124 1.5.372.424.248.74.56.948.936v-1.2h1.104V25h-1.104v-1.224c-.216.384-.54.704-.972.96-.424.248-.92.372-1.488.372a2.98 2.98 0 0 1-1.584-.432 3.03 3.03 0 0 1-1.116-1.212c-.272-.52-.408-1.112-.408-1.776Zm5.568.012c0-.496-.1-.928-.3-1.296a2.065 2.065 0 0 0-.816-.84 2.14 2.14 0 0 0-1.116-.3c-.408 0-.78.096-1.116.288a2.09 2.09 0 0 0-.804.84c-.2.368-.3.8-.3 1.296 0 .504.1.944.3 1.32.2.368.468.652.804.852a2.21 2.21 0 0 0 1.116.288c.408 0 .78-.096 1.116-.288.344-.2.616-.484.816-.852.2-.376.3-.812.3-1.308Zm6.153-3.396c.8 0 1.448.244 1.944.732.496.48.744 1.176.744 2.088V25h-1.08v-3.72c0-.656-.164-1.156-.492-1.5-.328-.352-.776-.528-1.344-.528-.576 0-1.036.18-1.38.54-.336.36-.504.884-.504 1.572V25h-1.092v-6.576h1.092v.936c.216-.336.508-.596.876-.78a2.774 2.774 0 0 1 1.236-.276Zm10.323 6.78a3.685 3.685 0 0 1-1.488-.288 2.542 2.542 0 0 1-1.02-.816 2.119 2.119 0 0 1-.384-1.212h1.164c.04.392.2.724.48.996.288.264.704.396 1.248.396.52 0 .928-.128 1.224-.384.304-.264.456-.6.456-1.008 0-.32-.088-.58-.264-.78a1.687 1.687 0 0 0-.66-.456c-.264-.104-.62-.216-1.068-.336a9.703 9.703 0 0 1-1.332-.432 2.212 2.212 0 0 1-.852-.672c-.232-.312-.348-.728-.348-1.248 0-.456.116-.86.348-1.212.232-.352.556-.624.972-.816.424-.192.908-.288 1.452-.288.784 0 1.424.196 1.92.588.504.392.788.912.852 1.56h-1.2c-.04-.32-.208-.6-.504-.84-.296-.248-.688-.372-1.176-.372-.456 0-.828.12-1.116.36-.288.232-.432.56-.432.984 0 .304.084.552.252.744.176.192.388.34.636.444.256.096.612.208 1.068.336.552.152.996.304 1.332.456.336.144.624.372.864.684.24.304.36.72.36 1.248 0 .408-.108.792-.324 1.152-.216.36-.536.652-.96.876-.424.224-.924.336-1.5.336Zm3.983-3.384c0-.68.136-1.272.408-1.776a2.938 2.938 0 0 1 1.128-1.188c.488-.28 1.044-.42 1.668-.42.808 0 1.472.196 1.992.588.528.392.876.936 1.044 1.632h-1.176a1.679 1.679 0 0 0-.66-.948c-.32-.232-.72-.348-1.2-.348-.624 0-1.128.216-1.512.648-.384.424-.576 1.028-.576 1.812 0 .792.192 1.404.576 1.836.384.432.888.648 1.512.648.48 0 .88-.112 1.2-.336.32-.224.54-.544.66-.96h1.176a2.921 2.921 0 0 1-1.056 1.62c-.528.4-1.188.6-1.98.6-.624 0-1.18-.14-1.668-.42a2.938 2.938 0 0 1-1.128-1.188c-.272-.512-.408-1.112-.408-1.8Zm10.961-3.396c.496 0 .944.108 1.344.324.4.208.712.524.936.948.232.424.348.94.348 1.548V25h-1.08v-3.72c0-.656-.164-1.156-.492-1.5-.328-.352-.776-.528-1.344-.528-.576 0-1.036.18-1.38.54-.336.36-.504.884-.504 1.572V25h-1.092v-8.88h1.092v3.24a2.16 2.16 0 0 1 .888-.78 2.933 2.933 0 0 1 1.284-.276Zm10.244.12V25h-1.092v-.972c-.208.336-.5.6-.876.792a2.698 2.698 0 0 1-1.224.276c-.512 0-.972-.104-1.38-.312a2.388 2.388 0 0 1-.972-.96c-.232-.424-.348-.94-.348-1.548v-3.852h1.08v3.708c0 .648.164 1.148.492 1.5.328.344.776.516 1.344.516.584 0 1.044-.18 1.38-.54.336-.36.504-.884.504-1.572v-3.612h1.092Zm2.936-2.304V25h-1.092v-8.88h1.092Zm3.193 3.204V23.2c0 .32.068.548.204.684.136.128.372.192.708.192h.804V25h-.984c-.608 0-1.064-.14-1.368-.42-.304-.28-.456-.74-.456-1.38v-3.876h-.852v-.9h.852v-1.656h1.092v1.656h1.716v.9h-1.716Zm3.855 4.776h3.228v.9h-4.476v-.9l3.192-4.788h-3.168v-.888h4.428v.888l-3.204 4.788ZM233.822 30.333c1.424 0 2.178-.754 2.178-2.177v-6.83c0-1.424-.754-2.184-2.178-2.184h-1.643c-.496 0-.67-.085-.993-.416l-.509-.533c-.341-.358-.689-.527-1.34-.527h-2.7c-.651 0-.999.17-1.34.527l-.509.533c-.322.331-.496.416-.999.416h-1.605c-1.424 0-2.184.76-2.184 2.184v6.83c0 1.423.76 2.177 2.184 2.177h11.638Zm-5.819-2.112c-1.914 0-3.454-1.547-3.454-3.49 0-1.937 1.54-3.49 3.454-3.49 1.914 0 3.448 1.553 3.448 3.49 0 1.943-1.534 3.49-3.448 3.49Zm4.736-4.991a.882.882 0 0 1-.882-.884.9.9 0 0 1 .882-.884c.471 0 .877.41.877.884a.89.89 0 0 1-.877.884Zm-4.736 3.698a2.176 2.176 0 0 0 2.172-2.197 2.18 2.18 0 0 0-2.172-2.197 2.179 2.179 0 0 0-2.171 2.197 2.18 2.18 0 0 0 2.171 2.197ZM370.016 24.112h2.928V25h-4.02v-8.364h1.092v7.476Zm10.088-2.652c0 .208-.012.428-.036.66h-5.256c.04.648.26 1.156.66 1.524.408.36.9.54 1.476.54.472 0 .864-.108 1.176-.324.32-.224.544-.52.672-.888h1.176a2.856 2.856 0 0 1-1.056 1.548c-.528.392-1.184.588-1.968.588-.624 0-1.184-.14-1.68-.42a2.995 2.995 0 0 1-1.152-1.188c-.28-.52-.42-1.12-.42-1.8 0-.68.136-1.276.408-1.788a2.836 2.836 0 0 1 1.14-1.176c.496-.28 1.064-.42 1.704-.42.624 0 1.176.136 1.656.408.48.272.848.648 1.104 1.128.264.472.396 1.008.396 1.608Zm-1.128-.228c0-.416-.092-.772-.276-1.068a1.737 1.737 0 0 0-.756-.684c-.312-.16-.66-.24-1.044-.24-.552 0-1.024.176-1.416.528-.384.352-.604.84-.66 1.464h4.152Zm2.161.456c0-.672.136-1.26.408-1.764a2.964 2.964 0 0 1 1.116-1.188 3.11 3.11 0 0 1 1.596-.42c.576 0 1.076.124 1.5.372.424.248.74.56.948.936v-1.2h1.104V25h-1.104v-1.224c-.216.384-.54.704-.972.96-.424.248-.92.372-1.488.372a2.98 2.98 0 0 1-1.584-.432 3.03 3.03 0 0 1-1.116-1.212c-.272-.52-.408-1.112-.408-1.776Zm5.568.012c0-.496-.1-.928-.3-1.296a2.065 2.065 0 0 0-.816-.84 2.14 2.14 0 0 0-1.116-.3c-.408 0-.78.096-1.116.288a2.09 2.09 0 0 0-.804.84c-.2.368-.3.8-.3 1.296 0 .504.1.944.3 1.32.2.368.468.652.804.852a2.21 2.21 0 0 0 1.116.288c.408 0 .78-.096 1.116-.288.344-.2.616-.484.816-.852.2-.376.3-.812.3-1.308Zm6.213-3.396c.496 0 .944.108 1.344.324.4.208.712.524.936.948.232.424.348.94.348 1.548V25h-1.08v-3.72c0-.656-.164-1.156-.492-1.5-.328-.352-.776-.528-1.344-.528-.576 0-1.036.18-1.38.54-.336.36-.504.884-.504 1.572V25h-1.092v-8.88h1.092v3.24a2.16 2.16 0 0 1 .888-.78 2.933 2.933 0 0 1 1.284-.276Zm10.263 6.78a3.685 3.685 0 0 1-1.488-.288 2.542 2.542 0 0 1-1.02-.816 2.119 2.119 0 0 1-.384-1.212h1.164c.04.392.2.724.48.996.288.264.704.396 1.248.396.52 0 .928-.128 1.224-.384.304-.264.456-.6.456-1.008 0-.32-.088-.58-.264-.78a1.687 1.687 0 0 0-.66-.456c-.264-.104-.62-.216-1.068-.336a9.703 9.703 0 0 1-1.332-.432 2.212 2.212 0 0 1-.852-.672c-.232-.312-.348-.728-.348-1.248 0-.456.116-.86.348-1.212.232-.352.556-.624.972-.816.424-.192.908-.288 1.452-.288.784 0 1.424.196 1.92.588.504.392.788.912.852 1.56h-1.2c-.04-.32-.208-.6-.504-.84-.296-.248-.688-.372-1.176-.372-.456 0-.828.12-1.116.36-.288.232-.432.56-.432.984 0 .304.084.552.252.744.176.192.388.34.636.444.256.096.612.208 1.068.336.552.152.996.304 1.332.456.336.144.624.372.864.684.24.304.36.72.36 1.248 0 .408-.108.792-.324 1.152-.216.36-.536.652-.96.876-.424.224-.924.336-1.5.336Zm5.723-5.76V23.2c0 .32.068.548.204.684.136.128.372.192.708.192h.804V25h-.984c-.608 0-1.064-.14-1.368-.42-.304-.28-.456-.74-.456-1.38v-3.876h-.852v-.9h.852v-1.656h1.092v1.656h1.716v.9h-1.716Zm5.908 5.784a3.4 3.4 0 0 1-1.68-.42 3.053 3.053 0 0 1-1.176-1.188c-.28-.52-.42-1.12-.42-1.8 0-.672.144-1.264.432-1.776.296-.52.696-.916 1.2-1.188a3.424 3.424 0 0 1 1.692-.42c.624 0 1.188.14 1.692.42.504.272.9.664 1.188 1.176.296.512.444 1.108.444 1.788 0 .68-.152 1.28-.456 1.8a3.09 3.09 0 0 1-1.212 1.188c-.512.28-1.08.42-1.704.42Zm0-.96c.392 0 .76-.092 1.104-.276.344-.184.62-.46.828-.828.216-.368.324-.816.324-1.344 0-.528-.104-.976-.312-1.344a2.003 2.003 0 0 0-.816-.816 2.237 2.237 0 0 0-1.092-.276c-.4 0-.768.092-1.104.276a1.951 1.951 0 0 0-.792.816c-.2.368-.3.816-.3 1.344 0 .536.096.988.288 1.356.2.368.464.644.792.828.328.176.688.264 1.08.264Zm7.483-4.824h-1.38V25h-1.092v-5.676h-.852v-.9h.852v-.468c0-.736.188-1.272.564-1.608.384-.344.996-.516 1.836-.516v.912c-.48 0-.82.096-1.02.288-.192.184-.288.492-.288.924v.468h1.38v.9Zm3.95 0h-1.38V25h-1.092v-5.676h-.852v-.9h.852v-.468c0-.736.188-1.272.564-1.608.384-.344.996-.516 1.836-.516v.912c-.48 0-.82.096-1.02.288-.192.184-.288.492-.288.924v.468h1.38v.9ZM352.004 23.775c1.913 0 3.505-1.728 3.505-3.94 0-2.16-1.601-3.835-3.505-3.835-1.903 0-3.521 1.701-3.513 3.852 0 2.195 1.601 3.923 3.513 3.923Zm5.72 8.225c1.004 0 1.609-.494 1.609-1.305 0-2.265-2.847-5.368-7.337-5.368-4.483 0-7.329 3.103-7.329 5.368 0 .811.605 1.305 1.609 1.305h11.448ZM472.516 20.812c0-.816.184-1.548.552-2.196a4.012 4.012 0 0 1 1.5-1.536 4.185 4.185 0 0 1 2.124-.552c.912 0 1.708.22 2.388.66.68.44 1.176 1.064 1.488 1.872h-1.308a2.614 2.614 0 0 0-1.008-1.164c-.432-.272-.952-.408-1.56-.408a3.05 3.05 0 0 0-1.572.408c-.464.272-.828.66-1.092 1.164-.264.496-.396 1.08-.396 1.752 0 .664.132 1.248.396 1.752.264.496.628.88 1.092 1.152a3.05 3.05 0 0 0 1.572.408c.608 0 1.128-.132 1.56-.396.44-.272.776-.66 1.008-1.164h1.308c-.312.8-.808 1.42-1.488 1.86-.68.432-1.476.648-2.388.648-.776 0-1.484-.18-2.124-.54a4.035 4.035 0 0 1-1.5-1.524c-.368-.648-.552-1.38-.552-2.196Zm9.27.876c0-.672.136-1.26.408-1.764a2.964 2.964 0 0 1 1.116-1.188 3.11 3.11 0 0 1 1.596-.42c.576 0 1.076.124 1.5.372.424.248.74.56.948.936v-1.2h1.104V25h-1.104v-1.224c-.216.384-.54.704-.972.96-.424.248-.92.372-1.488.372a2.98 2.98 0 0 1-1.584-.432 3.03 3.03 0 0 1-1.116-1.212c-.272-.52-.408-1.112-.408-1.776Zm5.568.012c0-.496-.1-.928-.3-1.296a2.065 2.065 0 0 0-.816-.84 2.14 2.14 0 0 0-1.116-.3c-.408 0-.78.096-1.116.288a2.09 2.09 0 0 0-.804.84c-.2.368-.3.8-.3 1.296 0 .504.1.944.3 1.32.2.368.468.652.804.852a2.21 2.21 0 0 0 1.116.288c.408 0 .78-.096 1.116-.288.344-.2.616-.484.816-.852.2-.376.3-.812.3-1.308Zm4.281-2.376V23.2c0 .32.068.548.204.684.136.128.372.192.708.192h.804V25h-.984c-.608 0-1.064-.14-1.368-.42-.304-.28-.456-.74-.456-1.38v-3.876h-.852v-.9h.852v-1.656h1.092v1.656h1.716v.9h-1.716Zm2.631 2.364c0-.672.136-1.26.408-1.764a2.964 2.964 0 0 1 1.116-1.188 3.11 3.11 0 0 1 1.596-.42c.576 0 1.076.124 1.5.372.424.248.74.56.948.936v-1.2h1.104V25h-1.104v-1.224c-.216.384-.54.704-.972.96-.424.248-.92.372-1.488.372a2.98 2.98 0 0 1-1.584-.432 3.03 3.03 0 0 1-1.116-1.212c-.272-.52-.408-1.112-.408-1.776Zm5.568.012c0-.496-.1-.928-.3-1.296a2.065 2.065 0 0 0-.816-.84 2.14 2.14 0 0 0-1.116-.3c-.408 0-.78.096-1.116.288a2.09 2.09 0 0 0-.804.84c-.2.368-.3.8-.3 1.296 0 .504.1.944.3 1.32.2.368.468.652.804.852a2.21 2.21 0 0 0 1.116.288c.408 0 .78-.096 1.116-.288.344-.2.616-.484.816-.852.2-.376.3-.812.3-1.308Zm4.041-5.58V25h-1.092v-8.88h1.092Zm2.426 1.236a.718.718 0 0 1-.528-.216.718.718 0 0 1-.216-.528c0-.208.072-.384.216-.528a.718.718 0 0 1 .528-.216c.2 0 .368.072.504.216.144.144.216.32.216.528a.718.718 0 0 1-.216.528.666.666 0 0 1-.504.216Zm.528 1.068V25h-1.092v-6.576h1.092Zm5.065-.12c.8 0 1.448.244 1.944.732.496.48.744 1.176.744 2.088V25h-1.08v-3.72c0-.656-.164-1.156-.492-1.5-.328-.352-.776-.528-1.344-.528-.576 0-1.036.18-1.38.54-.336.36-.504.884-.504 1.572V25h-1.092v-6.576h1.092v.936c.216-.336.508-.596.876-.78a2.774 2.774 0 0 1 1.236-.276Zm4.063 3.384c0-.672.136-1.26.408-1.764a2.964 2.964 0 0 1 1.116-1.188 3.11 3.11 0 0 1 1.596-.42c.576 0 1.076.124 1.5.372.424.248.74.56.948.936v-1.2h1.104V25h-1.104v-1.224c-.216.384-.54.704-.972.96-.424.248-.92.372-1.488.372a2.98 2.98 0 0 1-1.584-.432 3.03 3.03 0 0 1-1.116-1.212c-.272-.52-.408-1.112-.408-1.776Zm5.568.012c0-.496-.1-.928-.3-1.296a2.065 2.065 0 0 0-.816-.84 2.14 2.14 0 0 0-1.116-.3c-.408 0-.78.096-1.116.288a2.09 2.09 0 0 0-.804.84c-.2.368-.3.8-.3 1.296 0 .504.1.944.3 1.32.2.368.468.652.804.852a2.21 2.21 0 0 0 1.116.288c.408 0 .78-.096 1.116-.288.344-.2.616-.484.816-.852.2-.376.3-.812.3-1.308Zm4.078 1.788-1.344 3.228h-.732l.876-3.228h1.2Zm4.042-2.676c0-.816.184-1.548.552-2.196a4.012 4.012 0 0 1 1.5-1.536 4.185 4.185 0 0 1 2.124-.552c.912 0 1.708.22 2.388.66.68.44 1.176 1.064 1.488 1.872h-1.308a2.614 2.614 0 0 0-1.008-1.164c-.432-.272-.952-.408-1.56-.408a3.05 3.05 0 0 0-1.572.408c-.464.272-.828.66-1.092 1.164-.264.496-.396 1.08-.396 1.752 0 .664.132 1.248.396 1.752.264.496.628.88 1.092 1.152a3.05 3.05 0 0 0 1.572.408c.608 0 1.128-.132 1.56-.396.44-.272.776-.66 1.008-1.164h1.308c-.312.8-.808 1.42-1.488 1.86-.68.432-1.476.648-2.388.648-.776 0-1.484-.18-2.124-.54a4.035 4.035 0 0 1-1.5-1.524c-.368-.648-.552-1.38-.552-2.196Zm9.269.876c0-.672.136-1.26.408-1.764a2.964 2.964 0 0 1 1.116-1.188 3.11 3.11 0 0 1 1.596-.42c.576 0 1.076.124 1.5.372.424.248.74.56.948.936v-1.2h1.104V25h-1.104v-1.224c-.216.384-.54.704-.972.96-.424.248-.92.372-1.488.372a2.98 2.98 0 0 1-1.584-.432 3.03 3.03 0 0 1-1.116-1.212c-.272-.52-.408-1.112-.408-1.776Zm5.568.012c0-.496-.1-.928-.3-1.296a2.065 2.065 0 0 0-.816-.84 2.14 2.14 0 0 0-1.116-.3c-.408 0-.78.096-1.116.288a2.09 2.09 0 0 0-.804.84c-.2.368-.3.8-.3 1.296 0 .504.1.944.3 1.32.2.368.468.652.804.852a2.21 2.21 0 0 0 1.116.288c.408 0 .78-.096 1.116-.288.344-.2.616-.484.816-.852.2-.376.3-.812.3-1.308Zm4.042-5.58V25h-1.092v-8.88h1.092Zm2.425 1.236a.718.718 0 0 1-.528-.216.718.718 0 0 1-.216-.528c0-.208.072-.384.216-.528a.718.718 0 0 1 .528-.216c.2 0 .368.072.504.216.144.144.216.32.216.528a.718.718 0 0 1-.216.528.666.666 0 0 1-.504.216Zm.528 1.068V25h-1.092v-6.576h1.092Zm4.537.9h-1.38V25h-1.092v-5.676h-.852v-.9h.852v-.468c0-.736.188-1.272.564-1.608.384-.344.996-.516 1.836-.516v.912c-.48 0-.82.096-1.02.288-.192.184-.288.492-.288.924v.468h1.38v.9Zm4.141 5.784a3.4 3.4 0 0 1-1.68-.42 3.053 3.053 0 0 1-1.176-1.188c-.28-.52-.42-1.12-.42-1.8 0-.672.144-1.264.432-1.776.296-.52.696-.916 1.2-1.188a3.424 3.424 0 0 1 1.692-.42c.624 0 1.188.14 1.692.42.504.272.9.664 1.188 1.176.296.512.444 1.108.444 1.788 0 .68-.152 1.28-.456 1.8a3.09 3.09 0 0 1-1.212 1.188c-.512.28-1.08.42-1.704.42Zm0-.96c.392 0 .76-.092 1.104-.276.344-.184.62-.46.828-.828.216-.368.324-.816.324-1.344 0-.528-.104-.976-.312-1.344a2.003 2.003 0 0 0-.816-.816 2.237 2.237 0 0 0-1.092-.276c-.4 0-.768.092-1.104.276a1.951 1.951 0 0 0-.792.816c-.2.368-.3.816-.3 1.344 0 .536.096.988.288 1.356.2.368.464.644.792.828.328.176.688.264 1.08.264Zm5.9-4.656c.192-.376.464-.668.816-.876.36-.208.796-.312 1.308-.312v1.128h-.288c-1.224 0-1.836.664-1.836 1.992V25h-1.092v-6.576h1.092v1.068Zm6.589-1.188c.8 0 1.448.244 1.944.732.496.48.744 1.176.744 2.088V25h-1.08v-3.72c0-.656-.164-1.156-.492-1.5-.328-.352-.776-.528-1.344-.528-.576 0-1.036.18-1.38.54-.336.36-.504.884-.504 1.572V25h-1.092v-6.576h1.092v.936c.216-.336.508-.596.876-.78a2.774 2.774 0 0 1 1.236-.276Zm5.035-.948a.718.718 0 0 1-.528-.216.718.718 0 0 1-.216-.528c0-.208.072-.384.216-.528a.718.718 0 0 1 .528-.216c.2 0 .368.072.504.216.144.144.216.32.216.528a.718.718 0 0 1-.216.528.666.666 0 0 1-.504.216Zm.528 1.068V25h-1.092v-6.576h1.092Zm1.454 3.264c0-.672.136-1.26.408-1.764a2.964 2.964 0 0 1 1.116-1.188 3.11 3.11 0 0 1 1.596-.42c.576 0 1.076.124 1.5.372.424.248.74.56.948.936v-1.2h1.104V25h-1.104v-1.224c-.216.384-.54.704-.972.96-.424.248-.92.372-1.488.372a2.98 2.98 0 0 1-1.584-.432 3.03 3.03 0 0 1-1.116-1.212c-.272-.52-.408-1.112-.408-1.776Zm5.568.012c0-.496-.1-.928-.3-1.296a2.065 2.065 0 0 0-.816-.84 2.14 2.14 0 0 0-1.116-.3c-.408 0-.78.096-1.116.288a2.09 2.09 0 0 0-.804.84c-.2.368-.3.8-.3 1.296 0 .504.1.944.3 1.32.2.368.468.652.804.852a2.21 2.21 0 0 0 1.116.288c.408 0 .78-.096 1.116-.288.344-.2.616-.484.816-.852.2-.376.3-.812.3-1.308ZM457.845 31.073l5.945-12.953c.705-1.527-.47-2.592-1.96-1.91l-12.968 5.99c-1.345.617-1.061 2.527.47 2.535l5.815.016c.098 0 .114.008.114.114l.016 5.81c0 1.511 1.903 1.845 2.568.398Z" fill="#fff"/></svg>