<svg width="24" height="21" fill="none" xmlns="http://www.w3.org/2000/svg"><path d="M7.471 20.165c9.136 0 14.09-7.549 14.09-14.09 0-.156 0-.427-.038-.659A10.35 10.35 0 0 0 24 2.861a9.32 9.32 0 0 1-2.826.774A4.792 4.792 0 0 0 23.342.887c-.968.542-1.974.968-3.174 1.2C19.238 1.12 18 .5 16.568.5a5.006 5.006 0 0 0-4.994 4.994c0 .387.039.774.116 1.16C7.703 6.385 4.065 4.41 1.587 1.43 1.161 2.203.93 3.016.93 3.906c0 1.742.89 3.213 2.245 4.104A5.384 5.384 0 0 1 .93 7.39v.039c0 2.361 1.703 4.413 3.948 4.877-.425.117-.89.155-1.238.155-.31 0-.658-.038-.93-.116.659 1.974 2.478 3.407 4.646 3.445-1.703 1.317-3.832 2.13-6.116 2.13-.465.077-.852 0-1.239-.04 2.09 1.472 4.684 2.285 7.471 2.285Z" fill="#fff"/></svg>